<?xml version="1.0"?>
<svg xmlns="http://www.w3.org/2000/svg" xmlns:xlink="http://www.w3.org/1999/xlink" xmlns:svgjs="http://svgjs.com/svgjs" version="1.1" width="512" height="512" x="0" y="0" viewBox="0 0 512 512" style="enable-background:new 0 0 512 512" xml:space="preserve" class=""><g><g xmlns="http://www.w3.org/2000/svg"><path d="m473.249 5.087c-5.962-6.782-16.535-6.782-22.497 0-14.745 16.772-38.752 51.343-38.752 98.63 0 21.286 7.856 34.896 20 42.457v-.234h60v.234c12.144-7.561 20-21.171 20-42.457 0-47.287-24.007-81.858-38.751-98.63z" fill="#019fb6" data-original="#000000" style="" class=""/><path d="m432 482c0 16.569 13.431 30 30 30s30-13.431 30-30v-75h-60z" fill="#019fb6" data-original="#000000" style="" class=""/><path d="m432 171.641h60v205.359h-60z" fill="#019fb6" data-original="#000000" style="" class=""/><circle cx="105.064" cy="276.936" r="15" fill="#019fb6" data-original="#000000" style="" class=""/><circle cx="170.064" cy="164.353" r="15" fill="#019fb6" data-original="#000000" style="" class=""/><circle cx="170.064" cy="389.519" r="15" fill="#019fb6" data-original="#000000" style="" class=""/><path d="m282.732 249.398c-15.11-26.172-12.981-61.306 5.994-98.929 12.207-24.201 10.382-52.216-4.884-74.938-15.288-22.757-40.579-35.068-67.646-32.9-34.894 2.778-68.065 13.125-98.595 30.751-54.361 31.387-93.246 82.062-109.493 142.694-16.246 60.632-7.908 123.962 23.478 178.322 31.385 54.361 82.062 93.246 142.693 109.493 20.246 5.425 40.791 8.108 61.204 8.108 40.719-.001 80.909-10.681 117.118-31.586 18.317-10.575 34.824-23.301 49.398-38.002v-140.244c-9.276-4.939-19.643-7.877-30.596-8.497-42.069-2.376-73.559-18.099-88.671-44.272zm-222.668 27.538c0-24.813 20.187-45 45-45s45 20.187 45 45-20.187 45-45 45-45-20.187-45-45zm110 157.583c-24.813 0-45-20.187-45-45s20.187-45 45-45 45 20.187 45 45-20.186 45-45 45zm0-225.166c-24.813 0-45-20.187-45-45s20.187-45 45-45 45 20.187 45 45-20.186 45-45 45zm130 225.166c-24.813 0-45-20.187-45-45s20.187-45 45-45 45 20.187 45 45-20.186 45-45 45z" fill="#019fb6" data-original="#000000" style="" class=""/><circle cx="300.064" cy="389.519" r="15" fill="#019fb6" data-original="#000000" style="" class=""/></g></g></svg>
