<?xml version="1.0"?>
<svg xmlns="http://www.w3.org/2000/svg" xmlns:xlink="http://www.w3.org/1999/xlink" xmlns:svgjs="http://svgjs.com/svgjs" version="1.1" width="512" height="512" x="0" y="0" viewBox="0 0 512.001 512.001" style="enable-background:new 0 0 512 512" xml:space="preserve"><g>
<g xmlns="http://www.w3.org/2000/svg">
	<g>
		<g>
			<path d="M501.764,105.909L481.249,90.91c-3.248-2.374-7.807-1.667-10.183,1.582c-2.375,3.249-1.667,7.807,1.581,10.183     l20.515,14.999c3.311,2.421,4.869,6.342,4.066,10.232c-5.412,26.186-27.511,87.897-116.058,103.11     c-2.947-5.757-5.154-11.888-6.434-15.817c-0.231-0.716-0.461-1.434-0.684-2.165l-1.155-4.631l-0.265-1.065     c-0.001-0.005-0.004-0.01-0.005-0.016v0.001l-1.838-7.365c-1.23-4.931-0.571-10.104,1.856-14.568l10.202-18.769     c5.501-10.121,7.047-21.907,4.353-33.19c-1.052-4.404-1.154-8.895-0.305-13.346l1.233-6.455     c2.14-11.203-1.839-22.645-10.383-29.859l-9.234-7.797l34.209-7.771c11.042-2.508,22.563-0.155,31.61,6.46l14.148,10.344     c3.248,2.374,7.808,1.667,10.183-1.582s1.667-7.807-1.582-10.183l-14.147-10.344c-12.451-9.104-28.284-12.352-43.44-8.906     l-47.457,10.781c-9.458-4.672-19.864-7.171-30.423-7.171c-10.448,0-20.747,2.445-30.124,7.022l-46.799-10.632     c-3.904-0.887-7.915-1.337-11.92-1.337c-11.291,0-22.485,3.638-31.52,10.243L169.815,85.88h-9.749     c-1.087,0-2.17,0.012-3.256,0.034c-40.221,0.841-78.06,19.247-103.815,50.501c-6.392,7.756-11.871,16.095-16.409,24.854     C14.273,171.907,0,194.349,0,219.189v20.171c0,4.025,3.262,7.287,7.287,7.287c4.025,0,7.287-3.262,7.287-7.287v-20.171     c0-11.958,4.286-23.195,11.685-31.962c-5.792,20.196-7.063,41.66-3.392,62.871l7.7,44.486v38.471     c0,4.025,3.262,7.287,7.287,7.287s7.287-3.262,7.287-7.287v-39.097c0-0.417-0.036-0.832-0.107-1.243l-7.807-45.103     c-6.286-36.316,3.561-73.469,27.016-101.931c21.37-25.932,52.019-41.982,85.032-44.784l-6.856,5.012     c-7.858,5.746-11.68,15.538-9.736,24.945c2.724,13.183,10.298,38.85,30.409,62.629c1.244,1.47,2.522,2.905,3.821,4.318     c0.156,0.169,0.309,0.342,0.465,0.51c1.242,1.337,2.513,2.644,3.805,3.93c0.218,0.217,0.436,0.434,0.655,0.65     c1.283,1.26,2.591,2.494,3.923,3.702c0.225,0.205,0.453,0.407,0.68,0.61c1.363,1.22,2.747,2.419,4.159,3.587     c0.166,0.137,0.336,0.271,0.502,0.408c1.485,1.216,2.991,2.408,4.53,3.566c0.012,0.009,0.023,0.018,0.035,0.027     c1.539,1.158,3.112,2.279,4.706,3.379c0.194,0.134,0.385,0.27,0.579,0.403c1.524,1.041,3.076,2.051,4.65,3.04     c0.265,0.167,0.53,0.334,0.797,0.499c1.562,0.968,3.148,1.91,4.758,2.826c0.267,0.152,0.536,0.301,0.804,0.452     c1.649,0.925,3.318,1.828,5.016,2.699c0.188,0.097,0.379,0.189,0.568,0.285c1.764,0.896,3.549,1.768,5.365,2.607     c0.039,0.018,0.077,0.037,0.116,0.055c1.818,0.838,3.668,1.64,5.538,2.42c0.241,0.1,0.479,0.204,0.721,0.303     c1.794,0.738,3.614,1.446,5.455,2.132c0.315,0.117,0.63,0.235,0.947,0.351c1.83,0.669,3.683,1.314,5.559,1.931     c0.313,0.103,0.628,0.203,0.942,0.305c1.923,0.621,3.865,1.22,5.836,1.787c0.213,0.061,0.428,0.119,0.641,0.179     c2.022,0.574,4.066,1.124,6.138,1.641c0.08,0.02,0.158,0.042,0.238,0.061c2.081,0.517,4.193,0.998,6.324,1.458     c0.188,0.041,0.37,0.089,0.559,0.129c-5.157,2.788-9.772,2.223-13.865,1.721c-3.797-0.466-10.151-1.245-13.244,4.603     c-1.537,2.906-1.985,7.62,4.614,13.57c8.869,7.997,30.095,17.373,53.397,1.778c2.057-1.377,4.016-2.822,5.875-4.334     c0.122,0.986,0.239,1.951,0.352,2.899c0.032,0.269,0.063,0.532,0.094,0.798c0.086,0.728,0.169,1.445,0.25,2.151     c0.03,0.266,0.061,0.533,0.091,0.796c0.099,0.872,0.194,1.731,0.285,2.566c0.005,0.047,0.011,0.097,0.016,0.145     c0.095,0.884,0.185,1.742,0.271,2.584c0.023,0.226,0.045,0.445,0.067,0.668c0.063,0.629,0.124,1.245,0.181,1.849     c0.022,0.228,0.044,0.457,0.065,0.682c0.071,0.757,0.139,1.499,0.201,2.216c0.002,0.024,0.005,0.049,0.007,0.073     c0.064,0.743,0.122,1.457,0.177,2.156c0.015,0.192,0.029,0.378,0.043,0.566c0.039,0.517,0.076,1.021,0.109,1.512     c0.013,0.189,0.026,0.38,0.038,0.565c0.04,0.618,0.078,1.221,0.109,1.797c0.001,0.018,0.002,0.038,0.003,0.056     c0.032,0.592,0.058,1.154,0.081,1.7c0.007,0.158,0.012,0.31,0.017,0.465c0.015,0.398,0.027,0.783,0.036,1.155     c0.004,0.147,0.008,0.296,0.011,0.44c0.01,0.486,0.016,0.956,0.016,1.395v9.023c-0.087,0.147-0.169,0.285-0.241,0.407     c-0.195,0.329-0.337,0.567-0.403,0.676c-1.201,1.982-2.44,4.067-3.761,6.329c-0.302,0.517-0.604,1.036-0.905,1.555     c-0.072,0.125-0.141,0.242-0.214,0.368l-1.44,2.522c-0.005,0.009-0.009,0.016-0.014,0.025c-0.029,0.05-0.056,0.101-0.085,0.151     c-1.064,1.864-2.121,3.74-3.169,5.632c-0.084,0.151-0.169,0.298-0.253,0.449l-1.272,2.316c-0.009,0.016-0.018,0.031-0.026,0.047     c-0.08,0.147-0.155,0.287-0.235,0.433c-0.565,1.038-1.128,2.076-1.688,3.121c-1.034,1.925-2.022,3.791-2.975,5.62     c-0.149,0.286-0.298,0.572-0.447,0.859c-0.167,0.322-0.338,0.649-0.504,0.969c-0.937,1.817-1.861,3.64-2.778,5.469     c-0.002,0.004-0.004,0.008-0.006,0.011c-0.026,0.051-0.051,0.103-0.076,0.154c-0.303,0.606-0.603,1.216-0.905,1.824     c-0.907,1.828-1.806,3.66-2.693,5.496c-0.29,0.601-0.58,1.201-0.868,1.804c-0.965,2.015-1.911,4.028-2.842,6.034     c-0.212,0.458-0.427,0.913-0.638,1.372c-0.034,0.073-0.069,0.147-0.103,0.221c-0.005,0.01-0.009,0.021-0.014,0.031     c-1.105,2.399-2.193,4.807-3.269,7.219c-0.138,0.309-0.245,0.628-0.338,0.951c-0.009,0.03-0.023,0.058-0.032,0.089     c-0.845,1.759-1.554,3.308-2.201,4.81c-14.246,33.062-14.246,35.016-14.246,37.084v15.437c0,4.025,3.262,7.287,7.287,7.287     c7.015,0,8.613,5.647,8.976,8.086c0,0,0.001,0.008,0.001,0.013c0.048,0.323,0.09,0.648,0.117,1.025     c0.027,0.335,0.042,0.673,0.042,1.015v8.545h-34.409c-0.081,0-0.148-0.066-0.148-0.147V327.781     c0-7.164-5.604-12.952-12.759-13.176c-11.249-0.352-23.463-1.223-36.537-2.592c-1.59-0.167-3.194-0.34-4.811-0.522     c-0.23-0.026-0.46-0.051-0.69-0.078c-1.669-0.189-3.353-0.387-5.05-0.592c-0.184-0.022-0.367-0.044-0.552-0.067     c-1.747-0.213-3.509-0.434-5.284-0.663c-0.151-0.019-0.301-0.038-0.452-0.058c-1.797-0.233-3.609-0.475-5.433-0.725     c-0.146-0.02-0.291-0.039-0.438-0.06c-1.804-0.248-3.622-0.505-5.451-0.769c-0.181-0.026-0.36-0.051-0.542-0.077     c-1.755-0.254-3.524-0.519-5.301-0.788c-0.265-0.04-0.526-0.078-0.791-0.119c-1.713-0.261-3.44-0.532-5.172-0.807     c-0.321-0.051-0.637-0.099-0.958-0.15c-2.034-0.325-4.081-0.658-6.139-1.001c-2.921-0.486-5.845,0.843-7.399,3.362     c-0.505,0.819-1.03,1.666-1.56,2.519c-0.184,0.296-0.368,0.592-0.555,0.893c-0.4,0.643-0.809,1.298-1.221,1.957     c-0.382,0.611-0.772,1.233-1.168,1.862c-0.232,0.369-0.465,0.739-0.7,1.112c-0.378,0.599-0.758,1.202-1.147,1.815     c-0.026,0.041-0.052,0.082-0.078,0.122c-3.612,5.697-7.672,11.963-11.926,18.288c-0.161,0.239-0.321,0.478-0.482,0.717     c-0.404,0.598-0.809,1.197-1.216,1.796c-0.373,0.549-0.747,1.098-1.122,1.646c-0.283,0.414-0.566,0.829-0.85,1.242     c-0.697,1.014-1.397,2.024-2.099,3.029c-0.139,0.199-0.277,0.396-0.416,0.595c-4.009,5.727-8.064,11.279-12,16.306     c-0.014,0.018-0.023,0.038-0.037,0.055c-4.705,6.009-9.225,11.248-13.228,15.039l-0.148,0.14     c-6.787,6.418-7.46,25.158-7.46,25.341v15.437c0,4.025,3.262,7.287,7.287,7.287c6.744,0,9.137,5.461,9.137,10.139v8.545H45.287     c-0.081,0-0.148-0.066-0.148-0.147v-81.697c0-4.025-3.262-7.287-7.287-7.287c-4.025,0-7.287,3.262-7.287,7.287v81.697     c0,8.117,6.603,14.72,14.721,14.72h34.72c3.222,0,6.189-1.087,8.579-2.896c2.446,1.811,5.46,2.896,8.731,2.896h34.721     c7.864,0,14.262-6.398,14.262-14.262v-8.856c0-11.635-6.585-20.679-16.424-23.66v-9.202c0-4.033,1.666-12.75,3.081-14.923     c13.025-12.343,31.529-39.467,45.586-61.45c11.081,1.073,21.545,1.784,31.329,2.123v115.51c0,8.117,6.604,14.72,14.721,14.72     h34.72c2.522,0,4.918-0.687,7.006-1.879c2.139,1.198,4.59,1.879,7.165,1.879h34.721c7.864,0,14.262-6.398,14.262-14.262v-8.856     c0-11.635-6.585-20.678-16.423-23.66v-8.914c0.376-2.949,4.11-21.027,8.895-40.42c9.562,7.005,21.341,11.154,34.076,11.154     c31.868,0,57.795-25.927,57.795-57.796v-1.648c2.755-1.943,4.557-5.15,4.557-8.77v-6.154c0-5.914-4.811-10.725-10.725-10.725     h-34.569c-5.914,0-10.725,4.811-10.725,10.725v6.154c0,3.189,1.399,6.057,3.615,8.023c-0.386,1.501-1.75,2.613-3.37,2.613     c-1.918,0-3.478-1.561-3.478-3.478v-23.036c0-5.781,0.876-15.855,2.517-29.175c1.832,1.486,3.751,2.917,5.776,4.272     c8.32,5.569,17.074,8.393,26.016,8.393c15.479,0,27.66-8.664,31.366-14.816c2.478-4.114,1.457-7.357,0.628-8.925     c-0.979-1.85-3.452-4.954-9.024-4.954c-1.367,0-2.753,0.17-4.221,0.35c-1.647,0.202-3.35,0.411-5.179,0.411     c-3.119,0-5.826-0.64-8.428-1.998c37.723-7.894,67.74-24.732,89.346-50.174c20.243-23.834,27.854-49.598,30.59-62.836     C513.444,121.446,509.622,111.655,501.764,105.909z M258.762,413.146c-0.527-0.204-1.064-0.392-1.611-0.559v-8.536     c0.176-0.607,0.599-1.878,1.611-4.51V413.146z M82.596,414.643c-1.48-0.851-3.063-1.553-4.751-2.064v-9.202     c0-4.033,1.666-12.75,3.08-14.922c0.549-0.52,1.108-1.07,1.671-1.633V414.643z M122.91,377.896l-0.148,0.141     c-6.787,6.418-7.46,25.157-7.46,25.34v15.437c0,4.025,3.262,7.287,7.287,7.287c6.744,0,9.137,5.461,9.137,10.139v8.545H97.317     c-0.081,0-0.147-0.066-0.147-0.147V369.8c11.307-14.688,23.407-33.146,33.345-49.094c2.504,0.404,4.978,0.789,7.438,1.165     c0.488,0.075,0.975,0.149,1.462,0.222c5.073,0.767,10.051,1.473,14.931,2.12c0.19,0.025,0.379,0.05,0.569,0.075     c2.5,0.329,4.981,0.647,7.428,0.945C150.596,343.293,134.082,367.318,122.91,377.896z M250.455,228.454     c-0.768-0.183-1.521-0.375-2.277-0.566c-0.514-0.129-1.034-0.254-1.542-0.387c-0.799-0.208-1.584-0.426-2.37-0.643     c-0.452-0.124-0.911-0.244-1.358-0.371c-0.862-0.245-1.709-0.499-2.556-0.753c-0.358-0.107-0.722-0.21-1.077-0.319     c-0.975-0.299-1.933-0.608-2.888-0.92c-0.217-0.071-0.44-0.138-0.657-0.21c-5.88-1.946-11.379-4.125-16.52-6.498     c-0.061-0.028-0.12-0.058-0.181-0.086c-0.962-0.445-1.912-0.896-2.849-1.355c-0.131-0.064-0.257-0.13-0.388-0.195     c-0.862-0.425-1.717-0.854-2.559-1.29c-0.171-0.088-0.336-0.18-0.506-0.268c-0.794-0.416-1.583-0.834-2.359-1.259     c-0.194-0.107-0.383-0.216-0.576-0.323c-0.742-0.411-1.48-0.824-2.205-1.244c-0.213-0.123-0.419-0.249-0.631-0.372     c-0.697-0.408-1.39-0.817-2.071-1.232c-0.221-0.134-0.435-0.272-0.654-0.407c-0.663-0.41-1.324-0.82-1.972-1.236     c-0.221-0.142-0.436-0.286-0.656-0.429c-0.636-0.413-1.269-0.828-1.89-1.247c-0.222-0.15-0.439-0.303-0.66-0.454     c-0.609-0.416-1.215-0.834-1.81-1.256c-0.222-0.157-0.438-0.316-0.657-0.474c-0.583-0.419-1.165-0.84-1.735-1.264     c-0.223-0.166-0.44-0.333-0.661-0.5c-0.557-0.42-1.112-0.841-1.657-1.266c-0.222-0.173-0.438-0.348-0.658-0.521     c-0.535-0.423-1.067-0.847-1.589-1.274c-0.217-0.177-0.428-0.356-0.643-0.534c-0.516-0.428-1.03-0.857-1.535-1.289     c-0.209-0.179-0.414-0.359-0.621-0.539c-0.499-0.433-0.995-0.867-1.483-1.303c-0.205-0.184-0.407-0.369-0.61-0.554     c-0.479-0.435-0.955-0.871-1.423-1.309c-0.201-0.189-0.399-0.378-0.598-0.567c-0.46-0.437-0.918-0.875-1.367-1.315     c-0.196-0.192-0.389-0.385-0.584-0.578c-0.443-0.44-0.883-0.88-1.315-1.322c-0.191-0.195-0.378-0.39-0.566-0.586     c-0.426-0.442-0.85-0.885-1.266-1.329c-0.185-0.197-0.367-0.395-0.549-0.593c-0.411-0.445-0.818-0.889-1.218-1.336     c-0.179-0.199-0.355-0.398-0.531-0.598c-0.395-0.446-0.786-0.893-1.171-1.34c-0.174-0.202-0.345-0.404-0.517-0.607     c-0.379-0.447-0.754-0.894-1.123-1.341c-0.168-0.204-0.334-0.408-0.5-0.612c-0.364-0.447-0.724-0.895-1.078-1.343     c-0.163-0.206-0.324-0.412-0.485-0.618c-0.349-0.447-0.693-0.894-1.033-1.342c-0.158-0.208-0.314-0.416-0.47-0.624     c-0.334-0.446-0.664-0.893-0.989-1.34c-0.152-0.209-0.303-0.419-0.453-0.628c-0.32-0.446-0.636-0.892-0.948-1.338     c-0.147-0.21-0.292-0.42-0.437-0.63c-0.307-0.445-0.609-0.891-0.907-1.336c-0.141-0.211-0.282-0.422-0.421-0.632     c-0.293-0.443-0.582-0.886-0.866-1.329c-0.136-0.212-0.272-0.424-0.406-0.636c-0.28-0.441-0.556-0.882-0.827-1.323     c-0.131-0.213-0.262-0.425-0.391-0.637c-0.268-0.44-0.531-0.88-0.791-1.319c-0.125-0.211-0.25-0.421-0.373-0.632     c-0.255-0.437-0.505-0.872-0.753-1.308c-0.121-0.213-0.242-0.426-0.362-0.639c-0.243-0.434-0.482-0.867-0.718-1.3     c-0.115-0.21-0.229-0.42-0.342-0.63c-0.232-0.431-0.459-0.86-0.683-1.289c-0.111-0.212-0.222-0.424-0.332-0.636     c-0.219-0.423-0.432-0.845-0.644-1.267c-0.107-0.214-0.215-0.428-0.321-0.641c-0.208-0.42-0.411-0.839-0.613-1.257     c-0.101-0.21-0.203-0.42-0.302-0.629c-0.198-0.417-0.391-0.831-0.582-1.245c-0.097-0.209-0.194-0.419-0.289-0.627     c-0.187-0.41-0.369-0.818-0.549-1.225c-0.093-0.209-0.186-0.419-0.277-0.627c-0.176-0.402-0.346-0.801-0.516-1.2     c-0.089-0.21-0.18-0.421-0.267-0.63c-0.165-0.393-0.324-0.784-0.483-1.173c-0.086-0.211-0.173-0.423-0.258-0.633     c-0.154-0.384-0.303-0.764-0.451-1.145c-0.083-0.211-0.167-0.424-0.247-0.634c-0.145-0.376-0.284-0.749-0.423-1.121     c-0.078-0.209-0.158-0.419-0.234-0.626c-0.136-0.371-0.268-0.738-0.399-1.105c-0.073-0.205-0.148-0.411-0.22-0.614     c-0.127-0.362-0.25-0.719-0.372-1.076c-0.07-0.204-0.142-0.41-0.21-0.613c-0.117-0.349-0.23-0.693-0.343-1.037     c-0.067-0.206-0.137-0.414-0.202-0.618c-0.11-0.343-0.216-0.681-0.321-1.019c-0.062-0.198-0.126-0.398-0.186-0.595     c-0.105-0.34-0.204-0.674-0.304-1.009c-0.057-0.19-0.115-0.382-0.17-0.57c-0.095-0.324-0.185-0.641-0.276-0.959     c-0.056-0.195-0.114-0.393-0.168-0.586c-0.085-0.302-0.165-0.598-0.245-0.895c-0.055-0.201-0.112-0.405-0.165-0.604     c-0.078-0.291-0.151-0.575-0.225-0.861c-0.051-0.197-0.105-0.398-0.154-0.593c-0.072-0.283-0.139-0.558-0.208-0.836     c-0.047-0.19-0.096-0.384-0.141-0.571c-0.07-0.29-0.136-0.572-0.202-0.856c-0.039-0.167-0.08-0.337-0.118-0.502     c-0.068-0.297-0.132-0.585-0.196-0.875c-0.032-0.145-0.067-0.294-0.098-0.437c-0.093-0.428-0.182-0.847-0.267-1.258     c-0.804-3.89,0.754-7.81,4.066-10.232l58.829-43.012c6.557-4.794,14.696-7.435,22.918-7.435c2.921,0,5.845,0.328,8.692,0.974     l33.455,7.601l-9.437,7.968c-8.544,7.215-12.523,18.656-10.383,29.859l1.232,6.455c0.744,3.895,0.758,7.821,0.046,11.693     c-0.102,0.553-0.218,1.105-0.35,1.656c-2.357,9.872-1.467,20.129,2.477,29.319c0.563,1.313,1.189,2.604,1.877,3.869     l10.202,18.769c2.427,4.464,3.086,9.639,1.856,14.568l-3.271,13.112c-1.062,3.478-3.517,10.893-7.028,17.792     c-0.612-0.108-1.215-0.221-1.821-0.333c-0.645-0.12-1.295-0.236-1.933-0.361c-0.737-0.144-1.46-0.296-2.187-0.447     c-0.609-0.126-1.223-0.248-1.826-0.379c-0.745-0.161-1.477-0.332-2.213-0.5C251.589,228.713,251.016,228.588,250.455,228.454z      M288.73,240.218c-0.134,0.17-0.289,0.372-0.448,0.589c-0.029,0.036-0.063,0.065-0.091,0.102     c-3.526,4.593-8.059,8.76-13.474,12.384c-7.12,4.766-14.366,6.672-21.574,5.683c2.26-0.71,4.615-1.732,7.027-3.177     c4.333-2.598,8.281-6.892,12.07-13.127c0.002-0.003,0.003-0.006,0.005-0.009c4.257-7.009,7.461-15.214,9.398-20.85     c3.585,3.883,7.244,9.436,8.448,16.676C289.527,239.209,289.054,239.808,288.73,240.218z M307.891,436.239v8.545h-34.318v-8.545     c0-0.707-0.029-1.437-0.084-2.124c0,0-0.001-0.006-0.001-0.009c-0.031-0.421-0.079-0.866-0.137-1.326     c-0.007-0.055-0.009-0.102-0.016-0.158v-67.645c0.954-2.135,1.921-4.257,2.896-6.369c0.271-0.588,0.547-1.177,0.821-1.766     c0.925-1.984,1.857-3.96,2.8-5.921c0.285-0.593,0.576-1.185,0.864-1.778c0.812-1.673,1.63-3.338,2.454-4.994     c0.221-0.445,0.44-0.892,0.663-1.336c0.003-0.007,0.007-0.013,0.01-0.02c0.151-0.301,0.307-0.601,0.458-0.902     c0.961-1.906,1.927-3.805,2.904-5.687c0.151-0.29,0.3-0.578,0.452-0.87c0.955-1.831,1.922-3.645,2.892-5.452     c0.503-0.935,1.017-1.885,1.546-2.854c0.018-0.033,0.036-0.065,0.054-0.098c0.02,0.11,0.049,0.218,0.07,0.328     c0.168,0.9,0.358,1.791,0.568,2.676c0.034,0.142,0.064,0.285,0.099,0.427c0.782,3.189,1.826,6.274,3.114,9.232     c0.093,0.214,0.193,0.425,0.289,0.638c0.325,0.723,0.662,1.439,1.016,2.146c0.162,0.324,0.328,0.646,0.496,0.968     c0.304,0.581,0.619,1.155,0.943,1.723c0.214,0.378,0.427,0.756,0.65,1.129c0.292,0.488,0.598,0.967,0.904,1.446     c0.266,0.417,0.524,0.837,0.8,1.247c0.088,0.131,0.184,0.256,0.274,0.385c0.495,0.722,0.992,1.442,1.521,2.142     c-5.256,20.411-11.424,48.339-11.424,51.961v15.437c0,4.025,3.262,7.287,7.287,7.287     C305.499,426.1,307.891,431.562,307.891,436.239z M338.286,240.03c-0.136,1.781,0.387,3.55,1.469,4.971     c0.704,0.924,1.373,1.788,1.95,2.526c-2.113,15.476-4.166,33.019-4.166,42.781v23.036c0,9.954,8.098,18.051,18.051,18.051     c9.954,0,18.052-8.098,18.052-18.051v-3.719c0-2.333-1.097-4.41-2.803-5.744h24.197c-1.706,1.334-2.803,3.411-2.803,5.744v6.979     c0,23.833-19.389,43.223-43.222,43.223c-13.322,0-25.252-6.062-33.187-15.569c-0.09-0.108-0.181-0.216-0.27-0.325     c-0.337-0.412-0.665-0.831-0.987-1.255c-0.096-0.127-0.194-0.253-0.288-0.381c-0.3-0.404-0.59-0.816-0.876-1.231     c-0.108-0.156-0.217-0.311-0.323-0.469c-0.255-0.38-0.499-0.768-0.742-1.157c-0.124-0.199-0.253-0.397-0.374-0.598     c-0.202-0.335-0.393-0.676-0.585-1.017c-0.147-0.26-0.299-0.518-0.44-0.781c-0.127-0.236-0.244-0.478-0.367-0.716     c-1.039-2.022-1.921-4.118-2.628-6.274c-0.021-0.063-0.043-0.125-0.064-0.188c-0.164-0.509-0.315-1.024-0.461-1.539     c-0.036-0.128-0.074-0.255-0.109-0.383c-0.13-0.478-0.249-0.96-0.363-1.443c-0.042-0.177-0.084-0.354-0.123-0.531     c-0.1-0.449-0.191-0.9-0.277-1.352c-0.043-0.228-0.083-0.457-0.123-0.686c-0.071-0.414-0.138-0.828-0.197-1.245     c-0.041-0.291-0.076-0.584-0.112-0.877c-0.045-0.367-0.089-0.734-0.125-1.103c-0.036-0.384-0.062-0.772-0.088-1.159     c-0.02-0.289-0.045-0.577-0.059-0.867c-0.033-0.688-0.053-1.379-0.053-2.074v-15.286v-11.017c0-0.524-0.006-1.076-0.018-1.651     c-0.004-0.199-0.012-0.416-0.017-0.621c-0.01-0.388-0.02-0.774-0.035-1.184c-0.009-0.254-0.023-0.526-0.034-0.789     c-0.017-0.385-0.032-0.767-0.053-1.171c-0.015-0.29-0.034-0.597-0.05-0.896c-0.023-0.4-0.044-0.797-0.071-1.214     c-0.021-0.326-0.045-0.669-0.068-1.006c-0.028-0.412-0.056-0.821-0.087-1.248c-0.027-0.362-0.057-0.738-0.086-1.111     c-0.034-0.429-0.067-0.857-0.104-1.301c-0.032-0.389-0.068-0.791-0.103-1.192c-0.039-0.452-0.079-0.905-0.122-1.371     c-0.038-0.415-0.079-0.842-0.119-1.268c-0.045-0.475-0.091-0.952-0.139-1.44c-0.044-0.443-0.09-0.896-0.136-1.35     c-0.051-0.497-0.102-0.998-0.156-1.509c-0.05-0.47-0.101-0.947-0.153-1.429c-0.056-0.519-0.114-1.044-0.173-1.576     c-0.056-0.5-0.113-1.006-0.171-1.518c-0.061-0.534-0.124-1.076-0.188-1.623c-0.062-0.529-0.125-1.063-0.189-1.605     c-0.066-0.556-0.135-1.121-0.204-1.69c-0.069-0.563-0.138-1.129-0.209-1.704c-0.07-0.566-0.143-1.142-0.216-1.72     c-0.075-0.594-0.15-1.189-0.228-1.796c-0.076-0.593-0.155-1.197-0.234-1.802c-0.081-0.62-0.162-1.24-0.246-1.873     c-0.079-0.597-0.161-1.207-0.243-1.815c-0.089-0.665-0.178-1.328-0.271-2.007c-0.019-0.139-0.036-0.272-0.055-0.411     c0.556-0.713,1.193-1.535,1.86-2.412c1.083-1.42,1.605-3.19,1.469-4.971c-1.339-17.525-12.056-28.613-18.995-34.026l0.628-2.518     c2.116-8.479,0.982-17.378-3.192-25.056l-10.202-18.769c-3.78-6.954-4.839-15.068-2.982-22.845     c1.534-6.424,1.684-12.974,0.444-19.466l-1.233-6.455c-1.154-6.04,0.943-12.167,5.47-15.99l11.461-9.677     c0.691-0.583,1.399-1.147,2.12-1.697c0.182-0.139,0.369-0.271,0.553-0.408c0.555-0.413,1.116-0.82,1.687-1.213     c0.202-0.139,0.406-0.274,0.61-0.411c0.572-0.383,1.152-0.757,1.738-1.12c0.199-0.123,0.398-0.246,0.598-0.366     c0.614-0.369,1.236-0.723,1.864-1.069c8.019-4.403,16.994-6.77,26.101-6.77c9.171,0,18.207,2.401,26.268,6.863     c0.641,0.355,1.274,0.722,1.899,1.1c0.161,0.097,0.322,0.196,0.482,0.295c0.616,0.381,1.222,0.776,1.82,1.18     c0.165,0.112,0.332,0.221,0.497,0.334c0.588,0.405,1.163,0.825,1.733,1.251c0.161,0.12,0.325,0.236,0.484,0.358     c0.71,0.543,1.408,1.1,2.088,1.673l11.461,9.677c4.528,3.823,6.624,9.95,5.47,15.99l-1.233,6.456     c-1.239,6.492-1.09,13.041,0.444,19.466c1.857,7.776,0.797,15.889-2.982,22.844L359.84,178.43     c-4.174,7.678-5.307,16.576-3.192,25.057l0.629,2.521C350.341,211.42,339.625,222.503,338.286,240.03z M386.421,259.223     c-6.005,0-12.031-1.995-17.911-5.93c-5.415-3.624-9.948-7.791-13.475-12.384l-0.008,0.006c-0.192-0.266-0.379-0.503-0.546-0.713     c-0.323-0.41-0.791-1.003-1.346-1.714c1.202-7.231,4.854-12.785,8.436-16.667c3.936,11.586,11.031,27.711,21.484,33.979     c2.269,1.361,4.603,2.416,7.025,3.174C388.911,259.134,387.688,259.223,386.421,259.223z" fill="#019fb6" data-original="#000000" style=""/>
			<path d="M360.468,157.714c-0.001-0.012,0.013-1.43,0.863-2.791c0.463-0.401,2.038-0.867,3.192-0.938     c3.992-0.187,7.094-3.558,6.941-7.559c-0.155-4.021-3.518-7.162-7.561-7.001c-1.697,0.065-10.383,0.733-14.766,7.516     c-3.83,5.927-3.254,11.704-3.1,12.802c0.512,3.641,3.632,6.273,7.206,6.273c0.337,0,0.68-0.024,1.024-0.072     C358.252,165.384,361.028,161.699,360.468,157.714z" fill="#019fb6" data-original="#000000" style=""/>
			<path d="M281.262,139.425c-4.043-0.161-7.406,2.98-7.561,7.001c-0.153,4.001,2.949,7.372,6.941,7.559     c1.154,0.071,2.729,0.537,3.192,0.938c0.85,1.361,0.864,2.779,0.863,2.791c-0.56,3.985,2.216,7.67,6.201,8.23     c0.344,0.048,0.687,0.072,1.024,0.072c3.574,0,6.694-2.632,7.206-6.273c0.154-1.098,0.73-6.875-3.1-12.802     C291.644,140.158,282.959,139.49,281.262,139.425z" fill="#019fb6" data-original="#000000" style=""/>
		</g>
	</g>
</g>
<g xmlns="http://www.w3.org/2000/svg">
</g>
<g xmlns="http://www.w3.org/2000/svg">
</g>
<g xmlns="http://www.w3.org/2000/svg">
</g>
<g xmlns="http://www.w3.org/2000/svg">
</g>
<g xmlns="http://www.w3.org/2000/svg">
</g>
<g xmlns="http://www.w3.org/2000/svg">
</g>
<g xmlns="http://www.w3.org/2000/svg">
</g>
<g xmlns="http://www.w3.org/2000/svg">
</g>
<g xmlns="http://www.w3.org/2000/svg">
</g>
<g xmlns="http://www.w3.org/2000/svg">
</g>
<g xmlns="http://www.w3.org/2000/svg">
</g>
<g xmlns="http://www.w3.org/2000/svg">
</g>
<g xmlns="http://www.w3.org/2000/svg">
</g>
<g xmlns="http://www.w3.org/2000/svg">
</g>
<g xmlns="http://www.w3.org/2000/svg">
</g>
</g></svg>
